# xmcd CD database file
#
# Track frame offsets:
#	150
#	14822
#	27663
#	38580
#	51480
#	62390
#	76626
#	89102
#	101279
#	114237
#	126457
#	138211
#	152602
#	164464
#	177559
#	191324
#	202258
#	215499
#
# Disc length: 3036 seconds
#
# Revision: 1
# Processed by: cddbd v1.5.2PL0 Copyright (c) Steve Scherf et al.
# Submitted via: CDex 1.51
#
DISCID=fc0bda12
DTITLE=Various Artist - Solid Gold Collection Salsa CD1
DYEAR=2005
DGENRE=Salsa
TTITLE0=Cheo Feliciano - Oye Como Va
TTITLE1=Pupi Campo -Que Te Parence, Cholito?
TTITLE2=Bienvenido Granda - El Tubo
TTITLE3=Yayo El Indio - La Bataola
TTITLE4=La sonara Matancera - Cuban Pete
TTITLE5=Tito Puente - Caravan
TTITLE6=Orquestra Riverside - Mambo en Espana
TTITLE7=Joe Cuba Sextette Y Jose Feliciano and Coro - A La Seis
TTITLE8=Manolin Morel - Pare Cochero
TTITLE9=Los Compadres - Yo Tengo Pena
TTITLE10=Carlos Argentine Y La sonora matancera - Ay! Cosita Linda
TTITLE11=Celia Cruz - Guedia Zaina
TTITLE12=Cortijo Y su combo - Maria Teresa
TTITLE13=Celia Cruz - Melao De Cana
TTITLE14=Charlie Palmieri - I've Got You Under My Skin
TTITLE15=Vicentico Valdes Y La sonora matancera - Los Aretes De La Luna
TTITLE16=Noro Morales - Serenata Ritmica
TTITLE17=Babalu Miguelito Valdes con sonora - Se Forma El Rumbon
EXTD=YEAR: 2005
EXTT0=
EXTT1=
EXTT2=
EXTT3=
EXTT4=
EXTT5=
EXTT6=
EXTT7=
EXTT8=
EXTT9=
EXTT10=
EXTT11=
EXTT12=
EXTT13=
EXTT14=
EXTT15=
EXTT16=
EXTT17=
PLAYORDER=
